<?xml version="1.0" encoding="utf-8"?>
<!-- Generator: Adobe Illustrator 17.0.2, SVG Export Plug-In . SVG Version: 6.00 Build 0)  -->
<!DOCTYPE svg PUBLIC "-//W3C//DTD SVG 1.1//EN" "http://www.w3.org/Graphics/SVG/1.1/DTD/svg11.dtd">
<svg version="1.1" id="Layer_1" xmlns="http://www.w3.org/2000/svg" xmlns:xlink="http://www.w3.org/1999/xlink" x="0px" y="0px"
	 width="267.461px" height="163.28px" viewBox="0 0 267.461 163.28" enable-background="new 0 0 267.461 163.28"
	 xml:space="preserve">
<g>
	<g>
		<g>
			<g>
				<polygon fill="#FF5545" points="102.476,68.154 27.529,68.154 0,34.988 27.529,1.823 102.476,1.823 				"/>
				<g>
					<text transform="matrix(0.9488 0 0 1 29.071 46.8983)" fill="#FFFFFF" font-family="'AGBookRounded-Bold'" font-size="37.814">Trip</text>
				</g>
			</g>
			<g>
				<polygon fill="#FF5545" points="125.992,33.409 239.933,33.409 267.461,66.575 239.933,99.74 125.992,99.74 				"/>
				<text transform="matrix(0.9488 0 0 1 133.2808 77.411)" fill="#FFFFFF" font-family="'AGBookRounded-Bold'" font-size="37.814">Telling</text>
			</g>
			<path fill="#FF5545" d="M120.779,1.823l0.001-0.003c0-1.005-2.518-1.82-5.624-1.82c-3.106,0-5.624,0.815-5.624,1.82l0.001,0.003
				h-0.001v155.153h11.265V1.823H120.779z"/>
		</g>
	</g>
	
		<radialGradient id="SVGID_1_" cx="114.0417" cy="1125.2836" r="39.2149" gradientTransform="matrix(1 0 0 0.1759 0 -41.0065)" gradientUnits="userSpaceOnUse">
		<stop  offset="0" style="stop-color:#FF5545"/>
		<stop  offset="1" style="stop-color:#FF5545;stop-opacity:0"/>
	</radialGradient>
	<ellipse fill="url(#SVGID_1_)" cx="114.042" cy="156.898" rx="54.738" ry="6.383"/>
</g>
</svg>
